<?xml version="1.0" encoding="UTF-8" standalone="no"?>
<!-- Created with Inkscape (http://www.inkscape.org/) -->

<svg
   width="79.622345mm"
   height="81.457016mm"
   viewBox="0 0 79.622345 81.457016"
   version="1.1"
   id="svg1"
   xmlns:inkscape="http://www.inkscape.org/namespaces/inkscape"
   xmlns:sodipodi="http://sodipodi.sourceforge.net/DTD/sodipodi-0.dtd"
   xmlns="http://www.w3.org/2000/svg"
   xmlns:svg="http://www.w3.org/2000/svg">
  <sodipodi:namedview
     id="namedview1"
     pagecolor="#ffffff"
     bordercolor="#000000"
     borderopacity="0.25"
     inkscape:showpageshadow="2"
     inkscape:pageopacity="0.0"
     inkscape:pagecheckerboard="0"
     inkscape:deskcolor="#d1d1d1"
     inkscape:document-units="mm" />
  <defs
     id="defs1">
    <clipPath
       clipPathUnits="userSpaceOnUse"
       id="clipPath22-7-2">
      <path
         d="M 0,1080 H 1080 V 0 H 0 Z"
         transform="translate(-325.69781,-428.90631)"
         id="path22-6-5" />
    </clipPath>
  </defs>
  <g
     inkscape:label="Capa 1"
     inkscape:groupmode="layer"
     id="layer1"
     transform="translate(-25.929167,-114.03542)">
    <path
       id="path30-6"
       d="m 0,0 c -0.642,0.917 -1.168,2.153 -1.168,2.747 0,1.561 8.05,15.219 9.897,16.791 2.277,1.938 7.353,-0.148 7.353,-3.021 C 16.082,15.26 8.124,0.982 6.541,-0.601 4.89,-2.252 1.349,-1.927 0,0 m 8.25,-24 c -2.425,3.462 -1.749,4.425 12.746,18.154 12.234,11.589 14.211,13.179 16.383,13.179 2.686,0 4.953,-1.88 4.953,-4.107 0,-0.75 -1.949,-3.255 -4.332,-5.566 -23.834,-23.114 -24.074,-23.327 -26.345,-23.327 -1.462,0 -2.642,0.578 -3.405,1.667 z m 14.089,-25.841 c -0.478,0.304 -1.094,1.755 -1.37,3.224 -0.645,3.44 0.195,4.121 6.794,5.504 4.141,0.868 39.712,6.446 41.107,6.446 2.252,0 3.684,-6.52 1.775,-8.085 -0.996,-0.817 -41.526,-7.673 -45.243,-7.653 -1.207,0.005 -2.585,0.26 -3.063,0.564 m -164.948,-11.453 c -0.729,2.906 0.024,3.862 4.327,5.489 2.194,0.83 4.582,1.744 5.306,2.03 1.025,0.406 1.575,-0.096 2.482,-2.266 0.64,-1.533 1.031,-2.922 0.867,-3.085 -0.396,-0.396 -11.136,-4.041 -11.908,-4.041 -0.332,0 -0.815,0.843 -1.074,1.873 z M 57.333,-87.965 c -21.95,5.827 -31.248,8.587 -32.438,9.63 -2.564,2.248 -0.971,7.668 2.254,7.668 2.308,0 39.567,-9.909 41.246,-10.969 3.149,-1.988 1.478,-8.664 -2.122,-8.475 -0.586,0.031 -4.609,0.997 -8.94,2.146 z m -84.451,-24.505 -6.076,1.537 -0.96,3.82 c -0.912,3.629 -6.301,21.688 -17.913,60.022 l -5.21,17.2 4.549,4.737 c 4.496,4.682 5.81,5.558 5.81,3.871 0,-0.477 3.693,-13.049 8.206,-27.938 10.861,-35.835 18.794,-63.094 18.794,-64.579 0,-0.482 -0.122,-0.459 -7.2,1.33 z m 66.294,2.616 c -3.292,3.196 -6.477,6.757 -7.078,7.912 -2.11,4.054 0.919,7.503 4.817,5.487 3.476,-1.798 13.668,-12.955 13.668,-14.962 0,-2.036 -2.127,-4.25 -4.083,-4.25 -0.737,0 -4.033,2.616 -7.324,5.813 z m -146.341,-7.5 c -1.06,1.774 -16.252,52.098 -16.252,53.834 0,0.538 1.603,1.568 3.562,2.288 8.959,3.293 25.914,10.169 31.838,12.912 6.597,3.055 19.339,10.268 23.475,13.289 3.952,2.886 3.986,2.88 5.141,-0.926 0.599,-1.972 3.116,-9.997 5.595,-17.835 6.564,-20.757 16.639,-54.701 16.639,-56.06 0,-0.443 -3.495,-0.52 -9.188,-0.202 -14.622,0.818 -32.079,-1.166 -50.062,-5.689 -9.269,-2.332 -10.232,-2.476 -10.748,-1.611 z m -28.518,-7.157 c -3.973,0.829 -6.974,3.143 -8.854,6.828 -3.004,5.89 -9.63,28.949 -9.63,33.516 0,5.215 2.743,9.831 7.651,12.873 3.697,2.292 18.395,7.575 18.864,6.781 1.146,-1.94 17.084,-54.304 16.658,-54.73 -0.15,-0.151 -3.181,-1.269 -6.735,-2.486 -7.686,-2.631 -13.99,-3.608 -17.954,-2.782 z m 154.847,-8.033 c -10.779,7.123 -24.631,14.44 -30.653,16.19 -1.758,0.512 -3.489,1.297 -3.847,1.746 -0.358,0.449 -2.57,7.566 -4.916,15.816 -4.115,14.473 -18.261,61.589 -22.827,76.029 l -2.223,7.029 3.598,4.971 c 5.242,7.243 10.696,17.22 15.017,27.471 5.622,13.337 5.898,13.875 7.115,13.875 2.353,0 2.809,-1.358 20.276,-60.375 3.419,-11.55 10.785,-36.187 16.369,-54.75 15.106,-50.213 15.797,-52.75 14.731,-54.034 -0.498,-0.6 -1.12,-1.091 -1.383,-1.091 -0.263,0 -5.329,3.206 -11.257,7.124 z m -138.013,-7.798 c -2.838,1.123 -3.769,2.969 -3.795,7.526 l -0.023,4.225 5.31,1.969 c 2.921,1.083 5.612,1.782 5.98,1.555 0.368,-0.227 1.048,-1.82 1.511,-3.539 1.872,-6.952 -3.463,-13.922 -8.983,-11.736 z m 35.796,-58.629 c -1.011,0.795 -2.378,2.735 -3.039,4.312 -0.661,1.577 -3.438,13.836 -6.171,27.242 -2.733,13.406 -5.88,28.692 -6.993,33.969 -1.768,8.378 -1.883,9.685 -0.905,10.315 1.264,0.815 11.135,4.03 14.737,4.799 2.303,0.492 2.398,0.407 3.46,-3.101 0.6,-1.984 5.694,-17.608 11.319,-34.721 5.625,-17.113 10.228,-31.867 10.228,-32.787 0,-0.92 -0.544,-2.812 -1.207,-4.204 -1.069,-2.242 -1.99,-2.801 -8.063,-4.903 -7.917,-2.739 -10.802,-2.938 -13.366,-0.921 z"
       style="display:inline;fill:#5d57f4;fill-opacity:1;fill-rule:nonzero;stroke:none"
       transform="matrix(0.35277776,0,0,-0.35277776,80.315856,124.82442)"
       clip-path="url(#clipPath22-7-2)" />
  </g>
</svg>
